# xmcd CD database file
#
# Track frame offsets:
#	150
#	32398
#	69956
#	74307
#	124049
#	128754
#	171817
#	179648
#	216694
#
# Disc length: 3617 seconds
#
# Revision: 0
# Processed by: cddbd v1.5.2PL0 Copyright (c) Steve Scherf et al.
# Submitted via: CDex 1.70beta2
#
DISCID=830e1f09
DTITLE=Jesús Santandreu - Jesús Santandreu - Sound Colours
DYEAR=2008
DGENRE=Jazz
TTITLE0=Dani Emulation
TTITLE1=Suarajeb Ababa
TTITLE2=Yellow Interlude
TTITLE3=Montecristo
TTITLE4=Red Interlude
TTITLE5=L.W. Dream
TTITLE6=Blue Interlude
TTITLE7=Sound Colours
TTITLE8=Fluctux
EXTD=YEAR: 2008
EXTT0=
EXTT1=
EXTT2=
EXTT3=
EXTT4=
EXTT5=
EXTT6=
EXTT7=
EXTT8=
PLAYORDER=
